<mxfile host="app.diagrams.net" agent="Mozilla/5.0 (Windows NT 10.0; Win64; x64) AppleWebKit/537.36 (KHTML, like Gecko) Chrome/127.0.0.0 Safari/537.36 Edg/127.0.0.0" version="24.7.6">
  <diagram id="prtHgNgQTEPvFCAcTncT" name="Page-1">
    <mxGraphModel dx="1784" dy="776" grid="1" gridSize="10" guides="1" tooltips="1" connect="1" arrows="1" fold="1" page="0" pageScale="1" pageWidth="827" pageHeight="1169" background="#F0F0F0" math="0" shadow="0">
      <root>
        <mxCell id="0" />
        <mxCell id="1" parent="0" />
        <mxCell id="xV2-DqPg_27y4KBebF6c-39" value="" style="rounded=1;whiteSpace=wrap;html=1;shadow=1;glass=0;fillColor=#E6E6E6;strokeColor=#666666;fontColor=#333333;" parent="1" vertex="1">
          <mxGeometry x="-200" y="230" width="1060" height="420" as="geometry" />
        </mxCell>
        <mxCell id="qDD7QkIdliGN90tHD5vf-8" style="edgeStyle=orthogonalEdgeStyle;rounded=0;orthogonalLoop=1;jettySize=auto;html=1;exitX=1;exitY=0.5;exitDx=0;exitDy=0;entryX=0;entryY=0.5;entryDx=0;entryDy=0;endArrow=block;endFill=1;strokeColor=#808080;strokeWidth=4;" parent="1" source="vM5lTf9RMHXCYF5sCvvl-14" target="qDD7QkIdliGN90tHD5vf-1" edge="1">
          <mxGeometry relative="1" as="geometry" />
        </mxCell>
        <mxCell id="vM5lTf9RMHXCYF5sCvvl-14" value="Parent PRS Notebook" style="rounded=1;whiteSpace=wrap;html=1;fillColor=#CCCCCC;shadow=1;strokeColor=#6c8ebf;" parent="1" vertex="1">
          <mxGeometry x="-160" y="290" width="90" height="120" as="geometry" />
        </mxCell>
        <mxCell id="dZIAszViUNVuEi2tJDXL-19" style="edgeStyle=orthogonalEdgeStyle;rounded=0;orthogonalLoop=1;jettySize=auto;html=1;exitX=0.5;exitY=1;exitDx=0;exitDy=0;strokeColor=#000000;" parent="1" edge="1">
          <mxGeometry relative="1" as="geometry">
            <mxPoint x="896" y="714.25" as="sourcePoint" />
            <mxPoint x="896" y="714.25" as="targetPoint" />
          </mxGeometry>
        </mxCell>
        <mxCell id="x2gIdv0qrMuqdxSKQ4Gq-2" style="edgeStyle=orthogonalEdgeStyle;shape=connector;rounded=0;orthogonalLoop=1;jettySize=auto;html=1;exitX=1;exitY=0.5;exitDx=0;exitDy=0;entryX=0;entryY=0.5;entryDx=0;entryDy=0;strokeColor=#b85450;strokeWidth=4;align=center;verticalAlign=middle;fontFamily=Helvetica;fontSize=11;fontColor=default;labelBackgroundColor=default;endArrow=block;endFill=1;fillColor=#f8cecc;" edge="1" parent="1" source="qDD7QkIdliGN90tHD5vf-1" target="qDD7QkIdliGN90tHD5vf-2">
          <mxGeometry relative="1" as="geometry" />
        </mxCell>
        <mxCell id="x2gIdv0qrMuqdxSKQ4Gq-9" style="edgeStyle=orthogonalEdgeStyle;shape=connector;rounded=0;orthogonalLoop=1;jettySize=auto;html=1;exitX=0.5;exitY=1;exitDx=0;exitDy=0;entryX=0.5;entryY=1;entryDx=0;entryDy=0;strokeColor=#82b366;strokeWidth=4;align=center;verticalAlign=middle;fontFamily=Helvetica;fontSize=11;fontColor=default;labelBackgroundColor=default;endArrow=block;endFill=1;fillColor=#d5e8d4;" edge="1" parent="1" source="qDD7QkIdliGN90tHD5vf-1" target="qDD7QkIdliGN90tHD5vf-6">
          <mxGeometry relative="1" as="geometry" />
        </mxCell>
        <mxCell id="qDD7QkIdliGN90tHD5vf-1" value="Ruleset 1" style="rounded=1;whiteSpace=wrap;html=1;fillColor=#CCCCCC;shadow=1;strokeColor=#6c8ebf;" parent="1" vertex="1">
          <mxGeometry x="-30" y="290" width="90" height="120" as="geometry" />
        </mxCell>
        <mxCell id="x2gIdv0qrMuqdxSKQ4Gq-3" style="edgeStyle=orthogonalEdgeStyle;shape=connector;rounded=0;orthogonalLoop=1;jettySize=auto;html=1;exitX=1;exitY=0.5;exitDx=0;exitDy=0;entryX=0;entryY=0.5;entryDx=0;entryDy=0;strokeColor=#808080;strokeWidth=4;align=center;verticalAlign=middle;fontFamily=Helvetica;fontSize=11;fontColor=default;labelBackgroundColor=default;endArrow=block;endFill=1;fillColor=#d5e8d4;" edge="1" parent="1" source="qDD7QkIdliGN90tHD5vf-2" target="qDD7QkIdliGN90tHD5vf-3">
          <mxGeometry relative="1" as="geometry" />
        </mxCell>
        <mxCell id="qDD7QkIdliGN90tHD5vf-2" value="Ruleset 2" style="rounded=1;whiteSpace=wrap;html=1;fillColor=#CCCCCC;shadow=1;strokeColor=#6c8ebf;" parent="1" vertex="1">
          <mxGeometry x="120" y="290" width="90" height="120" as="geometry" />
        </mxCell>
        <mxCell id="x2gIdv0qrMuqdxSKQ4Gq-4" style="edgeStyle=orthogonalEdgeStyle;shape=connector;rounded=0;orthogonalLoop=1;jettySize=auto;html=1;exitX=1;exitY=0.5;exitDx=0;exitDy=0;entryX=0;entryY=0.5;entryDx=0;entryDy=0;strokeColor=#808080;strokeWidth=4;align=center;verticalAlign=middle;fontFamily=Helvetica;fontSize=11;fontColor=default;labelBackgroundColor=default;endArrow=block;endFill=1;fillColor=#d5e8d4;" edge="1" parent="1" source="qDD7QkIdliGN90tHD5vf-3" target="qDD7QkIdliGN90tHD5vf-4">
          <mxGeometry relative="1" as="geometry" />
        </mxCell>
        <mxCell id="qDD7QkIdliGN90tHD5vf-3" value="Ruleset 3" style="rounded=1;whiteSpace=wrap;html=1;fillColor=#CCCCCC;shadow=1;strokeColor=#6c8ebf;" parent="1" vertex="1">
          <mxGeometry x="280" y="290" width="90" height="120" as="geometry" />
        </mxCell>
        <mxCell id="x2gIdv0qrMuqdxSKQ4Gq-5" style="edgeStyle=orthogonalEdgeStyle;shape=connector;rounded=0;orthogonalLoop=1;jettySize=auto;html=1;exitX=1;exitY=0.5;exitDx=0;exitDy=0;entryX=0;entryY=0.5;entryDx=0;entryDy=0;strokeColor=#808080;strokeWidth=4;align=center;verticalAlign=middle;fontFamily=Helvetica;fontSize=11;fontColor=default;labelBackgroundColor=default;endArrow=block;endFill=1;" edge="1" parent="1" source="qDD7QkIdliGN90tHD5vf-4" target="qDD7QkIdliGN90tHD5vf-5">
          <mxGeometry relative="1" as="geometry" />
        </mxCell>
        <mxCell id="qDD7QkIdliGN90tHD5vf-4" value="Ruleset 4" style="rounded=1;whiteSpace=wrap;html=1;fillColor=#CCCCCC;shadow=1;strokeColor=#6c8ebf;" parent="1" vertex="1">
          <mxGeometry x="430" y="290" width="90" height="120" as="geometry" />
        </mxCell>
        <mxCell id="x2gIdv0qrMuqdxSKQ4Gq-6" style="edgeStyle=orthogonalEdgeStyle;shape=connector;rounded=0;orthogonalLoop=1;jettySize=auto;html=1;exitX=1;exitY=0.5;exitDx=0;exitDy=0;entryX=0;entryY=0.5;entryDx=0;entryDy=0;strokeColor=#808080;strokeWidth=4;align=center;verticalAlign=middle;fontFamily=Helvetica;fontSize=11;fontColor=default;labelBackgroundColor=default;endArrow=block;endFill=1;" edge="1" parent="1" source="x2gIdv0qrMuqdxSKQ4Gq-12" target="qDD7QkIdliGN90tHD5vf-6">
          <mxGeometry relative="1" as="geometry" />
        </mxCell>
        <mxCell id="x2gIdv0qrMuqdxSKQ4Gq-13" style="edgeStyle=orthogonalEdgeStyle;shape=connector;rounded=0;orthogonalLoop=1;jettySize=auto;html=1;exitX=1;exitY=0.5;exitDx=0;exitDy=0;entryX=0;entryY=0.5;entryDx=0;entryDy=0;strokeColor=#808080;strokeWidth=4;align=center;verticalAlign=middle;fontFamily=Helvetica;fontSize=11;fontColor=default;labelBackgroundColor=default;endArrow=block;endFill=1;" edge="1" parent="1" source="qDD7QkIdliGN90tHD5vf-5" target="x2gIdv0qrMuqdxSKQ4Gq-12">
          <mxGeometry relative="1" as="geometry" />
        </mxCell>
        <mxCell id="qDD7QkIdliGN90tHD5vf-5" value="Ruleset 5" style="rounded=1;whiteSpace=wrap;html=1;fillColor=#CCCCCC;shadow=1;strokeColor=#6c8ebf;" parent="1" vertex="1">
          <mxGeometry x="590" y="290" width="90" height="120" as="geometry" />
        </mxCell>
        <mxCell id="x2gIdv0qrMuqdxSKQ4Gq-8" style="edgeStyle=orthogonalEdgeStyle;shape=connector;rounded=0;orthogonalLoop=1;jettySize=auto;html=1;exitX=1;exitY=0.5;exitDx=0;exitDy=0;entryX=0;entryY=0.5;entryDx=0;entryDy=0;strokeColor=#808080;strokeWidth=4;align=center;verticalAlign=middle;fontFamily=Helvetica;fontSize=11;fontColor=default;labelBackgroundColor=default;endArrow=block;endFill=1;" edge="1" parent="1" source="qDD7QkIdliGN90tHD5vf-6" target="qDD7QkIdliGN90tHD5vf-7">
          <mxGeometry relative="1" as="geometry" />
        </mxCell>
        <mxCell id="qDD7QkIdliGN90tHD5vf-6" value="Update&amp;nbsp;&lt;div&gt;PRS Gold&lt;/div&gt;" style="rounded=1;whiteSpace=wrap;html=1;fillColor=#dae8fc;shadow=1;strokeColor=#6c8ebf;" parent="1" vertex="1">
          <mxGeometry x="260" y="460" width="90" height="120" as="geometry" />
        </mxCell>
        <mxCell id="qDD7QkIdliGN90tHD5vf-7" value="Update&lt;div&gt;dQM Bronze&lt;/div&gt;" style="rounded=1;whiteSpace=wrap;html=1;fillColor=#dae8fc;shadow=1;strokeColor=#6c8ebf;" parent="1" vertex="1">
          <mxGeometry x="390" y="460" width="90" height="120" as="geometry" />
        </mxCell>
        <mxCell id="x2gIdv0qrMuqdxSKQ4Gq-11" value="PRS Dataflow Diagram" style="rounded=1;whiteSpace=wrap;html=1;fillColor=#CCCCCC;shadow=1;strokeColor=#6c8ebf;" vertex="1" parent="1">
          <mxGeometry x="230" y="240" width="150" height="30" as="geometry" />
        </mxCell>
        <mxCell id="x2gIdv0qrMuqdxSKQ4Gq-12" value="Generate&lt;div&gt;Global Patient IDs&lt;/div&gt;" style="rounded=1;whiteSpace=wrap;html=1;fillColor=#CCCCCC;shadow=1;strokeColor=#6c8ebf;" vertex="1" parent="1">
          <mxGeometry x="740" y="290" width="90" height="120" as="geometry" />
        </mxCell>
      </root>
    </mxGraphModel>
  </diagram>
</mxfile>
